<svg width="93" height="347" viewBox="0 0 93 347" fill="none" xmlns="http://www.w3.org/2000/svg">
<mask id="path-1-inside-1_70_3" fill="white">
<path fill-rule="evenodd" clip-rule="evenodd" d="M40.2555 0.204683C37.8244 0.634283 35.1377 1.99719 33.9527 3.40234C32.5706 5.04055 31.0005 8.55969 30.1169 11.9986C28.789 17.1674 29.4777 24.6328 31.4713 26.6766C31.7685 26.9816 31.6605 26.5463 31.2205 25.6689C30.0695 23.3734 29.5534 18.7992 30.0501 15.2962C30.5257 11.9406 32.2799 6.66658 33.5633 4.73159C34.7437 2.95269 37.2484 1.39503 39.7706 0.872353C42.5761 0.290603 46.947 0.641085 48.9503 1.6084C51.1488 2.67023 53.9489 5.81562 54.8616 8.24894C56.5275 12.691 56.6736 18.5167 55.2258 22.8034C54.4671 25.0502 54.3383 25.9495 54.9789 24.5286L55.3827 23.6336L55.5187 24.6224C55.6784 25.7802 54.7747 29.0828 53.7354 31.1409C51.8605 34.853 47.3095 39.9226 45.852 39.9226C45.4928 39.9226 45.1988 40.0859 45.1988 40.2853C45.1988 40.9522 47.8632 39.5575 49.3354 38.1197L50.7806 36.7089L51.2127 39.4193C51.7665 42.8894 53.1924 46.048 54.8996 47.5867C56.9751 49.4569 61.0754 50.4647 68.1071 50.8323C72.9635 51.0865 73.4743 51.3768 75.6746 55.1376C77.9065 58.9518 77.9887 59.7838 78.0454 79.1236C78.0734 88.7717 78.2234 97.1489 78.3781 97.7396C80.3014 105.072 82.1346 110.424 83.9549 114.021C85.6718 117.414 87.0087 123.255 88.0545 131.937C89.115 140.737 89.9049 145.925 90.6177 148.764C91.2974 151.47 92.1601 163.876 92.2754 172.597L92.3705 179.793L90.0054 182.377C87.7699 184.821 87.5736 184.95 86.4276 184.742C85.7605 184.62 83.9341 184.768 82.369 185.07C77.1931 186.068 78.6297 184.657 84.6766 182.803C85.862 182.44 85.8258 182.427 84.0349 182.576C81.9042 182.754 79.4121 183.976 79.0851 185.003C78.966 185.377 78.9556 185.769 79.0611 185.875C79.167 185.98 80.6499 185.868 82.3564 185.627C84.0629 185.385 85.9952 185.274 86.6505 185.38C87.7738 185.562 87.9881 185.407 90.4199 182.647L92.9985 179.722L92.8166 170.414C92.6152 160.086 92.2187 155.019 91.1474 149.085C90.7519 146.894 89.8539 140.495 89.1523 134.864C87.4472 121.183 86.5758 117.479 83.7216 111.788C82.7508 109.853 80.6983 104.325 79.5682 100.604C78.8486 98.2337 78.7951 97.0677 78.5802 79.1236C78.3817 62.5715 78.274 59.9119 77.7375 58.287C76.9375 55.8647 73.8482 51.2705 72.6549 50.7281C72.1424 50.4954 70.802 50.3003 69.6761 50.295C65.9907 50.2774 61.1633 49.6706 58.5603 48.8973C56.4658 48.2748 55.7764 47.871 54.7324 46.6545C53.1909 44.858 52.2435 42.4419 51.6581 38.8139L51.2192 36.0945L52.7333 33.8817C54.9556 30.6343 55.6626 28.5114 56.0868 23.8126C57.1692 11.8293 56.4726 7.9586 52.4721 3.72848C50.6048 1.75411 49.7793 1.15482 48.3387 0.728079C45.927 0.0135113 42.5678 -0.203795 40.2555 0.204683ZM31.4344 29.1826C31.7312 31.4137 32.7059 33.3387 34.6773 35.5865L36.3572 37.5022L35.9829 40.0927C35.5408 43.1554 34.126 46.4339 32.5286 48.099C31.0109 49.681 28.8791 50.7206 24.7422 51.8967C19.7095 53.3272 18.9357 53.5821 19.1069 53.7529C19.3764 54.0214 27.3455 51.7388 29.4077 50.8026C31.7082 49.758 33.0799 48.5522 34.2832 46.517C35.5354 44.3987 36.5855 41.1209 36.5855 39.3294C36.5855 37.7259 36.9067 37.4034 37.6335 38.2769C38.4923 39.3094 41.8292 40.6397 43.4403 40.5917C44.9918 40.5456 44.9842 40.5402 43.0075 40.2864C40.6535 39.9842 38.5127 38.6618 35.4941 35.6449C33.4546 33.6068 32.5135 32.0083 31.6895 29.1826L31.2198 27.5716L31.4344 29.1826ZM15.4111 55.0671C12.564 56.464 11.712 57.6433 10.8916 61.3221C10.0245 65.21 10.3525 71.5663 12.911 100.425C13.9371 111.998 13.9385 112.064 13.2409 112.955C10.7832 116.09 6.91472 125.52 4.83496 133.449C3.58495 138.214 0.225026 156.687 0.424209 157.7C0.483067 157.998 1.31103 153.892 2.26424 148.576C4.15666 138.024 5.67942 131.642 7.68777 125.843C9.18362 121.524 12.4538 114.616 13.7228 113.095C14.1976 112.526 14.5346 111.899 14.4711 111.702C14.1094 110.58 11.384 75.1312 11.2095 69.2786C10.9074 59.1483 11.5666 57.3068 16.2871 55.0965C17.6807 54.4442 18.5782 53.9129 18.2822 53.9161C17.9861 53.9197 16.6941 54.4374 15.4111 55.0671ZM32.0994 54.6672C33.6785 54.8487 36.5288 54.9239 38.4338 54.8344C41.4187 54.6944 42.056 54.7689 43.0498 55.3718C44.5019 56.2524 44.8364 56.0054 43.5544 54.9994C42.6453 54.2863 42.2053 54.2455 35.909 54.2902C29.8574 54.3336 29.4985 54.369 32.0994 54.6672ZM53.4533 54.4889C49.2424 54.9296 47.3256 55.8017 47.3805 57.2516C47.4042 57.8799 47.467 57.843 47.767 57.0236C48.169 55.927 49.045 55.6052 53.4533 54.935C57.3081 54.3486 57.3081 54.0851 53.4533 54.4889ZM68.4175 65.9904C68.1555 67.7657 68.2398 68.113 69.6776 71.1814C71.1354 74.2928 71.2183 74.6429 71.2158 77.6916C71.2129 81.238 70.6749 82.714 68.4753 85.2132C64.8975 89.2779 59.1808 89.632 55.5822 86.0123C54.7517 85.1771 54.2421 84.8158 54.4499 85.2096C55.6289 87.4475 58.6267 89.0388 61.6984 89.0571C64.1288 89.0717 65.8206 88.3897 67.8268 86.5869L69.3596 85.2096L69.1403 88.2526C68.9099 91.446 68.0066 95.2401 65.7736 102.394C64.4852 106.521 64.4324 106.894 64.4303 111.881C64.4281 116.763 64.5268 117.508 66.089 124.411C67.0024 128.447 67.8652 132.858 68.0055 134.212C68.1462 135.566 68.5783 137.66 68.9662 138.866C69.8778 141.699 70.2324 149.951 69.6252 154.192C69.1249 157.683 67.4761 164.105 64.5867 173.815C63.444 177.654 61.9324 183.051 61.2272 185.808C58.5671 196.207 55.6066 212.935 55.0503 220.713C54.7743 224.568 54.273 226.805 52.9569 230.055C52.4541 231.297 52.096 232.366 52.1613 232.431C52.2266 232.496 52.4828 232.061 52.7308 231.464C52.9785 230.867 53.2857 230.379 53.4127 230.379C53.7368 230.379 55.5373 236.207 56.0122 238.792C56.8304 243.25 56.2293 249.669 53.9503 260.809C52.1049 269.83 51.8616 271.509 51.8508 275.308C51.8411 278.674 52.008 280.199 52.6221 282.356C53.3693 284.978 53.3819 285.256 52.893 288.263C52.3357 291.69 52.3529 291.901 53.7059 298.168C54.9183 303.785 54.7636 305.528 52.5478 311.203C51.605 313.618 50.7476 315.509 50.6428 315.404C50.538 315.3 50.3406 312.438 50.2046 309.044L49.9566 302.874L48.2634 298.578C44.5388 289.129 43.6886 280.041 44.8216 261.792C45.5046 250.791 45.2179 245.54 43.5749 238.971C42.1138 233.13 41.6343 227.363 42.2491 223.028C42.5169 221.14 42.4842 219.843 42.1181 217.837C41.8497 216.367 41.4682 211.777 41.2701 207.638C40.642 194.516 40.1794 186.712 39.6357 180.08C38.5888 167.31 38.3828 163.505 38.3814 156.911L38.3799 150.211L39.6443 150.955C40.4916 151.454 41.5985 151.715 43.0003 151.748L45.0922 151.798L44.4032 153.767C42.543 159.084 39.4613 173.292 39.8901 174.575C39.9648 174.798 40.3151 173.389 40.6689 171.444C41.5471 166.616 43.6025 158.222 44.8859 154.221C45.8649 151.168 46.0673 150.834 47.546 149.819C49.9448 148.173 49.4736 148.205 46.7403 149.874C44.5643 151.202 44.1699 151.324 42.6263 151.141C41.6875 151.03 40.5239 150.73 40.0409 150.474C39.5582 150.217 37.4795 147.994 35.422 145.533C33.3645 143.071 31.4118 140.836 31.0826 140.566C30.0193 139.693 30.4481 140.632 31.7089 141.938C32.3822 142.635 34.0754 144.656 35.4715 146.428L38.0103 149.65L38.0193 158.6C38.0254 164.417 38.2712 170.306 38.7223 175.426C39.5359 184.664 40.0359 192.844 40.5279 204.981C40.7238 209.817 41.1373 215.213 41.4459 216.974C42.0273 220.288 41.9509 221.975 41.0411 225.904C40.7676 227.085 40.553 228.374 40.5638 228.768L40.5839 229.484L40.8721 228.768C41.0784 228.255 41.2324 228.762 41.4151 230.558C41.5554 231.936 42.2226 235.561 42.898 238.613C44.6928 246.724 44.8938 249.796 44.2908 259.914C43.6233 271.109 43.6323 279.189 44.3181 285.068C44.9896 290.826 45.7713 293.986 47.7222 298.83C49.1814 302.455 49.2112 302.616 49.5123 308.602C49.8726 315.765 50.3345 317.798 53.8229 327.576C56.8799 336.144 57.2367 337.802 56.6944 340.909C56.2806 343.28 55.486 345.252 54.7489 345.739C54.1603 346.127 47.364 346.069 45.9453 345.663C44.1354 345.145 41.9878 343.528 41.7255 342.486C41.5992 341.983 41.7657 339.469 42.0955 336.9C42.7756 331.61 42.8266 328.049 42.3292 320.595C42.1389 317.74 41.9057 314.155 41.8109 312.629C41.7162 311.103 41.3092 308.79 40.9065 307.49C40.4353 305.968 40.1744 304.132 40.1744 302.34C40.1744 299.924 39.9156 298.778 38.2217 293.696C30.4837 270.48 26.8191 258.896 25.9965 255.054C24.6284 248.662 24.6754 244.78 26.2147 237.002C28.4057 225.929 27.9036 220.826 23.0845 205.187C21.8021 201.026 19.9725 194.641 19.0186 190.999C18.0647 187.356 16.4691 181.476 15.4731 177.932C11.1984 162.719 9.64657 154.566 9.61248 147.138C9.58843 141.843 9.90032 140.445 12.1861 135.61C13.0036 133.881 14.2486 130.935 14.9527 129.065C16.5925 124.708 17.582 123.298 21.4045 119.87C27.7023 114.224 28.4201 113.204 29.7476 108.016C31.0216 103.04 30.8691 102.125 27.1263 92.2873C23.312 82.2619 21.2864 75.7588 21.0445 72.7623C21.0043 72.2669 20.4452 71.4449 19.7532 70.8642C18.7006 69.981 18.5908 69.9481 18.954 70.6254C19.1858 71.0568 19.6991 71.5831 20.0949 71.7943C20.4908 72.0055 20.7294 72.3156 20.6257 72.4831C20.4222 72.8117 22.1374 79.6703 23.2266 82.8826C23.8489 84.7185 23.8722 85.5651 23.5722 95.4126C23.3676 102.138 23.3791 107.664 23.6048 110.628C23.7997 113.188 23.8751 115.72 23.7724 116.255C23.6547 116.87 22.8555 117.828 21.599 118.86C17.7812 121.995 16.0585 124.4 14.3832 128.933C13.7946 130.525 12.5116 133.582 11.5315 135.726C9.26616 140.684 8.85415 142.729 8.98658 148.355L9.09317 152.872L7.58656 155.817C6.75788 157.437 6.07994 158.916 6.07994 159.104C6.07994 159.293 6.39541 159.546 6.78121 159.668C7.59553 159.926 12.5234 169.644 13.374 172.67C14.0333 175.014 13.4795 175.024 12.1811 172.692C10.7835 170.182 8.55053 167.325 8.1012 167.473C7.87797 167.546 7.48535 169.204 7.2291 171.158C6.82607 174.233 6.83827 175.029 7.31882 177.088C7.6246 178.396 7.87438 179.818 7.87438 180.248C7.87438 180.678 8.33269 181.46 8.89255 181.987C12.8367 185.693 13.6166 186.511 13.6166 186.937C13.6166 187.688 13.1852 187.534 10.5294 185.835C6.03688 182.961 6.27374 183.295 4.99574 178.021C4.36373 175.412 3.20416 171.022 2.41927 168.266C1.63438 165.509 0.769097 162.126 0.496342 160.748L0 158.242L0.19273 160.569C0.298961 161.848 0.796376 164.346 1.2981 166.118C1.79983 167.89 2.99385 172.401 3.95101 176.142C5.89403 183.734 5.72141 183.451 10.0134 186.117C12.6914 187.782 13.355 187.986 13.912 187.316C14.2483 186.912 14.1549 186.539 13.4634 185.522L12.5898 184.238L13.7315 184.128C15.2119 183.985 15.1422 183.509 13.4817 182.422C12.2456 181.613 12.1976 181.521 12.8777 181.27C14.6075 180.632 13.1974 179.883 10.3866 179.948L8.77161 179.984L10.7222 180.307C13.0417 180.691 13.3001 180.86 12.044 181.175C10.7311 181.504 10.8639 181.77 12.7201 182.531C13.6073 182.895 14.2432 183.338 14.133 183.516C13.711 184.197 12.1114 183.787 10.3988 182.56C8.96899 181.535 8.57135 181.021 8.39478 179.965C8.27383 179.24 7.9519 177.839 7.67951 176.851C7.25781 175.32 7.25925 174.559 7.68848 171.71C7.96554 169.871 8.25445 168.304 8.33053 168.228C8.40662 168.152 9.5687 169.692 10.9131 171.649C12.2575 173.607 13.556 175.284 13.7986 175.377C14.0408 175.47 14.3243 175.921 14.4281 176.381C15.3012 180.246 21.2566 201.519 22.9804 206.93C26.4943 217.961 26.6791 218.906 26.6855 225.904C26.6909 231.195 26.5603 232.621 25.6864 236.823C24.4619 242.711 24.1227 247.973 24.7235 251.758C25.4664 256.44 26.7049 260.608 33.2629 280.495C39.3866 299.065 39.5847 299.759 39.8069 303.407C39.9329 305.477 40.2128 307.492 40.4285 307.886C41.0041 308.935 41.2008 310.831 41.7822 320.953C42.3083 330.106 42.252 331.977 41.2388 339.032C40.7493 342.439 41.1642 343.569 43.4959 345.181C44.8188 346.095 45.2817 346.188 49.6386 346.415C55.4433 346.717 55.6576 346.62 56.6298 343.24C58.1099 338.096 58.2096 338.731 53.9363 326.078L50.8919 317.063L52.6957 312.569C55.2689 306.159 55.5341 304.608 54.7639 300.475C54.423 298.644 53.8926 296.018 53.5854 294.64C53.1041 292.479 53.0897 291.646 53.4838 288.596C53.9607 284.905 53.8757 284.081 52.5381 279.425C51.7374 276.639 52.0375 273.984 54.5999 261.167C56.6747 250.789 56.7848 249.973 56.8225 244.699C56.8652 238.79 56.5778 237.099 54.6832 232.117L53.7788 229.739L54.4948 227.619C54.8939 226.437 55.4487 223.132 55.7484 220.152C57.1028 206.691 60.2546 191.029 64.6416 175.963C65.6447 172.517 67.3498 166.315 68.4304 162.18C70.2141 155.354 70.4122 154.212 70.582 149.784C70.7732 144.794 70.423 141.476 69.3761 138.373C69.0775 137.487 68.6813 135.431 68.4961 133.806C68.3109 132.18 67.5174 127.933 66.7325 124.368C64.6589 114.949 64.3499 112.448 64.8419 109.079C65.176 106.794 66.7935 100.593 67.6602 98.2766C67.8709 97.7135 69.3316 101.887 70.8658 107.436C71.4946 109.71 71.8686 112.311 72.109 116.077C72.6115 123.948 73.246 126.156 77.59 135.151C82.5287 145.376 83.6161 147.803 84.6773 150.961C85.2691 152.723 85.7533 154.433 85.7533 154.759C85.7533 155.085 84.9357 156.766 83.937 158.493C81.9706 161.891 81.5073 163.646 80.7425 170.593C80.5149 172.66 80.2425 174.933 80.1367 175.643C79.7774 178.057 82.1044 177.801 82.9012 175.339C83.6265 173.098 85.3287 169.519 85.6693 169.519C86.1 169.519 87.3091 172.288 88.404 175.784L89.3012 178.648L88.3096 179.722C87.7641 180.312 87.0463 181.234 86.714 181.769C86.2083 182.584 86.1979 182.709 86.6494 182.537C86.9462 182.423 87.1888 182.213 87.1888 182.069C87.1888 181.925 87.776 181.057 88.4934 180.138L89.798 178.467L89.2384 176.946C88.9309 176.11 88.572 174.862 88.441 174.173C88.1058 172.41 86.3774 168.803 85.8681 168.803C85.1999 168.803 84.1605 170.52 82.8876 173.725C81.9695 176.036 81.56 176.679 81.0037 176.679C80.4909 176.679 80.3563 176.514 80.5203 176.088C80.6452 175.763 80.9894 173.387 81.2851 170.808C82.1888 162.921 82.3822 162.1 83.9617 159.448C85.8279 156.315 86.5619 154.284 86.1186 153.479C85.9349 153.145 85.5207 151.91 85.1981 150.735C84.5496 148.375 81.1197 140.566 78.0447 134.45C74.2049 126.812 73.3102 123.656 72.8243 116.035C72.4593 110.305 71.4655 105.943 69.0351 99.4025C68.1135 96.9223 68.1074 96.8461 68.6597 94.6257C69.4891 91.2928 70.0537 87.2463 69.8667 85.975C69.7537 85.2071 70.0235 84.2269 70.7302 82.8397C72.5846 79.1995 72.4302 75.5075 70.2378 71.0733C69.4425 69.4644 69.0251 68.0203 68.8916 66.4146L68.6982 64.0876L68.4175 65.9904ZM26.0037 81.0926C26.2735 82.9149 27.7496 85.728 29.2326 87.2456C32.3452 90.4311 37.0592 91.344 40.7985 89.4852C42.6041 88.5874 45.1988 86.1419 45.1988 85.3371C45.1988 85.113 44.5733 85.6389 43.8089 86.5052C40.033 90.784 34.3493 91.0776 30.044 87.2166C28.3709 85.7158 27.1941 83.7665 26.1318 80.7346C25.8741 79.9997 25.8511 80.0637 26.0037 81.0926ZM24.7422 87.2259C24.7422 87.4257 25.789 90.3587 27.0685 93.744C30.4054 102.574 30.5745 103.933 28.9684 109.017C27.9836 112.134 27.4069 113.221 25.8138 114.958L24.4698 116.425L24.2107 111.413C23.8966 105.334 24.0969 86.4655 24.473 86.6971C24.6212 86.7884 24.7422 87.0261 24.7422 87.2259ZM10.5847 160.569C11.1187 163.227 11.6172 165.804 11.6926 166.297C11.7676 166.789 11.0348 165.553 10.0636 163.551C9.03826 161.438 7.93037 159.671 7.42218 159.339L6.54649 158.767L7.83849 156.267C9.33578 153.37 9.04723 152.918 10.5847 160.569ZM82.7924 181.391C82.2494 181.589 81.8055 181.908 81.8055 182.099C81.8055 182.292 81.9903 182.335 82.2161 182.196C82.4418 182.057 83.2899 181.736 84.1002 181.483C85.1708 181.148 85.3284 181.024 84.6766 181.027C84.1831 181.029 83.3354 181.193 82.7924 181.391Z"/>
</mask>
<path fill-rule="evenodd" clip-rule="evenodd" d="M40.2555 0.204683C37.8244 0.634283 35.1377 1.99719 33.9527 3.40234C32.5706 5.04055 31.0005 8.55969 30.1169 11.9986C28.789 17.1674 29.4777 24.6328 31.4713 26.6766C31.7685 26.9816 31.6605 26.5463 31.2205 25.6689C30.0695 23.3734 29.5534 18.7992 30.0501 15.2962C30.5257 11.9406 32.2799 6.66658 33.5633 4.73159C34.7437 2.95269 37.2484 1.39503 39.7706 0.872353C42.5761 0.290603 46.947 0.641085 48.9503 1.6084C51.1488 2.67023 53.9489 5.81562 54.8616 8.24894C56.5275 12.691 56.6736 18.5167 55.2258 22.8034C54.4671 25.0502 54.3383 25.9495 54.9789 24.5286L55.3827 23.6336L55.5187 24.6224C55.6784 25.7802 54.7747 29.0828 53.7354 31.1409C51.8605 34.853 47.3095 39.9226 45.852 39.9226C45.4928 39.9226 45.1988 40.0859 45.1988 40.2853C45.1988 40.9522 47.8632 39.5575 49.3354 38.1197L50.7806 36.7089L51.2127 39.4193C51.7665 42.8894 53.1924 46.048 54.8996 47.5867C56.9751 49.4569 61.0754 50.4647 68.1071 50.8323C72.9635 51.0865 73.4743 51.3768 75.6746 55.1376C77.9065 58.9518 77.9887 59.7838 78.0454 79.1236C78.0734 88.7717 78.2234 97.1489 78.3781 97.7396C80.3014 105.072 82.1346 110.424 83.9549 114.021C85.6718 117.414 87.0087 123.255 88.0545 131.937C89.115 140.737 89.9049 145.925 90.6177 148.764C91.2974 151.47 92.1601 163.876 92.2754 172.597L92.3705 179.793L90.0054 182.377C87.7699 184.821 87.5736 184.95 86.4276 184.742C85.7605 184.62 83.9341 184.768 82.369 185.07C77.1931 186.068 78.6297 184.657 84.6766 182.803C85.862 182.44 85.8258 182.427 84.0349 182.576C81.9042 182.754 79.4121 183.976 79.0851 185.003C78.966 185.377 78.9556 185.769 79.0611 185.875C79.167 185.98 80.6499 185.868 82.3564 185.627C84.0629 185.385 85.9952 185.274 86.6505 185.38C87.7738 185.562 87.9881 185.407 90.4199 182.647L92.9985 179.722L92.8166 170.414C92.6152 160.086 92.2187 155.019 91.1474 149.085C90.7519 146.894 89.8539 140.495 89.1523 134.864C87.4472 121.183 86.5758 117.479 83.7216 111.788C82.7508 109.853 80.6983 104.325 79.5682 100.604C78.8486 98.2337 78.7951 97.0677 78.5802 79.1236C78.3817 62.5715 78.274 59.9119 77.7375 58.287C76.9375 55.8647 73.8482 51.2705 72.6549 50.7281C72.1424 50.4954 70.802 50.3003 69.6761 50.295C65.9907 50.2774 61.1633 49.6706 58.5603 48.8973C56.4658 48.2748 55.7764 47.871 54.7324 46.6545C53.1909 44.858 52.2435 42.4419 51.6581 38.8139L51.2192 36.0945L52.7333 33.8817C54.9556 30.6343 55.6626 28.5114 56.0868 23.8126C57.1692 11.8293 56.4726 7.9586 52.4721 3.72848C50.6048 1.75411 49.7793 1.15482 48.3387 0.728079C45.927 0.0135113 42.5678 -0.203795 40.2555 0.204683ZM31.4344 29.1826C31.7312 31.4137 32.7059 33.3387 34.6773 35.5865L36.3572 37.5022L35.9829 40.0927C35.5408 43.1554 34.126 46.4339 32.5286 48.099C31.0109 49.681 28.8791 50.7206 24.7422 51.8967C19.7095 53.3272 18.9357 53.5821 19.1069 53.7529C19.3764 54.0214 27.3455 51.7388 29.4077 50.8026C31.7082 49.758 33.0799 48.5522 34.2832 46.517C35.5354 44.3987 36.5855 41.1209 36.5855 39.3294C36.5855 37.7259 36.9067 37.4034 37.6335 38.2769C38.4923 39.3094 41.8292 40.6397 43.4403 40.5917C44.9918 40.5456 44.9842 40.5402 43.0075 40.2864C40.6535 39.9842 38.5127 38.6618 35.4941 35.6449C33.4546 33.6068 32.5135 32.0083 31.6895 29.1826L31.2198 27.5716L31.4344 29.1826ZM15.4111 55.0671C12.564 56.464 11.712 57.6433 10.8916 61.3221C10.0245 65.21 10.3525 71.5663 12.911 100.425C13.9371 111.998 13.9385 112.064 13.2409 112.955C10.7832 116.09 6.91472 125.52 4.83496 133.449C3.58495 138.214 0.225026 156.687 0.424209 157.7C0.483067 157.998 1.31103 153.892 2.26424 148.576C4.15666 138.024 5.67942 131.642 7.68777 125.843C9.18362 121.524 12.4538 114.616 13.7228 113.095C14.1976 112.526 14.5346 111.899 14.4711 111.702C14.1094 110.58 11.384 75.1312 11.2095 69.2786C10.9074 59.1483 11.5666 57.3068 16.2871 55.0965C17.6807 54.4442 18.5782 53.9129 18.2822 53.9161C17.9861 53.9197 16.6941 54.4374 15.4111 55.0671ZM32.0994 54.6672C33.6785 54.8487 36.5288 54.9239 38.4338 54.8344C41.4187 54.6944 42.056 54.7689 43.0498 55.3718C44.5019 56.2524 44.8364 56.0054 43.5544 54.9994C42.6453 54.2863 42.2053 54.2455 35.909 54.2902C29.8574 54.3336 29.4985 54.369 32.0994 54.6672ZM53.4533 54.4889C49.2424 54.9296 47.3256 55.8017 47.3805 57.2516C47.4042 57.8799 47.467 57.843 47.767 57.0236C48.169 55.927 49.045 55.6052 53.4533 54.935C57.3081 54.3486 57.3081 54.0851 53.4533 54.4889ZM68.4175 65.9904C68.1555 67.7657 68.2398 68.113 69.6776 71.1814C71.1354 74.2928 71.2183 74.6429 71.2158 77.6916C71.2129 81.238 70.6749 82.714 68.4753 85.2132C64.8975 89.2779 59.1808 89.632 55.5822 86.0123C54.7517 85.1771 54.2421 84.8158 54.4499 85.2096C55.6289 87.4475 58.6267 89.0388 61.6984 89.0571C64.1288 89.0717 65.8206 88.3897 67.8268 86.5869L69.3596 85.2096L69.1403 88.2526C68.9099 91.446 68.0066 95.2401 65.7736 102.394C64.4852 106.521 64.4324 106.894 64.4303 111.881C64.4281 116.763 64.5268 117.508 66.089 124.411C67.0024 128.447 67.8652 132.858 68.0055 134.212C68.1462 135.566 68.5783 137.66 68.9662 138.866C69.8778 141.699 70.2324 149.951 69.6252 154.192C69.1249 157.683 67.4761 164.105 64.5867 173.815C63.444 177.654 61.9324 183.051 61.2272 185.808C58.5671 196.207 55.6066 212.935 55.0503 220.713C54.7743 224.568 54.273 226.805 52.9569 230.055C52.4541 231.297 52.096 232.366 52.1613 232.431C52.2266 232.496 52.4828 232.061 52.7308 231.464C52.9785 230.867 53.2857 230.379 53.4127 230.379C53.7368 230.379 55.5373 236.207 56.0122 238.792C56.8304 243.25 56.2293 249.669 53.9503 260.809C52.1049 269.83 51.8616 271.509 51.8508 275.308C51.8411 278.674 52.008 280.199 52.6221 282.356C53.3693 284.978 53.3819 285.256 52.893 288.263C52.3357 291.69 52.3529 291.901 53.7059 298.168C54.9183 303.785 54.7636 305.528 52.5478 311.203C51.605 313.618 50.7476 315.509 50.6428 315.404C50.538 315.3 50.3406 312.438 50.2046 309.044L49.9566 302.874L48.2634 298.578C44.5388 289.129 43.6886 280.041 44.8216 261.792C45.5046 250.791 45.2179 245.54 43.5749 238.971C42.1138 233.13 41.6343 227.363 42.2491 223.028C42.5169 221.14 42.4842 219.843 42.1181 217.837C41.8497 216.367 41.4682 211.777 41.2701 207.638C40.642 194.516 40.1794 186.712 39.6357 180.08C38.5888 167.31 38.3828 163.505 38.3814 156.911L38.3799 150.211L39.6443 150.955C40.4916 151.454 41.5985 151.715 43.0003 151.748L45.0922 151.798L44.4032 153.767C42.543 159.084 39.4613 173.292 39.8901 174.575C39.9648 174.798 40.3151 173.389 40.6689 171.444C41.5471 166.616 43.6025 158.222 44.8859 154.221C45.8649 151.168 46.0673 150.834 47.546 149.819C49.9448 148.173 49.4736 148.205 46.7403 149.874C44.5643 151.202 44.1699 151.324 42.6263 151.141C41.6875 151.03 40.5239 150.73 40.0409 150.474C39.5582 150.217 37.4795 147.994 35.422 145.533C33.3645 143.071 31.4118 140.836 31.0826 140.566C30.0193 139.693 30.4481 140.632 31.7089 141.938C32.3822 142.635 34.0754 144.656 35.4715 146.428L38.0103 149.65L38.0193 158.6C38.0254 164.417 38.2712 170.306 38.7223 175.426C39.5359 184.664 40.0359 192.844 40.5279 204.981C40.7238 209.817 41.1373 215.213 41.4459 216.974C42.0273 220.288 41.9509 221.975 41.0411 225.904C40.7676 227.085 40.553 228.374 40.5638 228.768L40.5839 229.484L40.8721 228.768C41.0784 228.255 41.2324 228.762 41.4151 230.558C41.5554 231.936 42.2226 235.561 42.898 238.613C44.6928 246.724 44.8938 249.796 44.2908 259.914C43.6233 271.109 43.6323 279.189 44.3181 285.068C44.9896 290.826 45.7713 293.986 47.7222 298.83C49.1814 302.455 49.2112 302.616 49.5123 308.602C49.8726 315.765 50.3345 317.798 53.8229 327.576C56.8799 336.144 57.2367 337.802 56.6944 340.909C56.2806 343.28 55.486 345.252 54.7489 345.739C54.1603 346.127 47.364 346.069 45.9453 345.663C44.1354 345.145 41.9878 343.528 41.7255 342.486C41.5992 341.983 41.7657 339.469 42.0955 336.9C42.7756 331.61 42.8266 328.049 42.3292 320.595C42.1389 317.74 41.9057 314.155 41.8109 312.629C41.7162 311.103 41.3092 308.79 40.9065 307.49C40.4353 305.968 40.1744 304.132 40.1744 302.34C40.1744 299.924 39.9156 298.778 38.2217 293.696C30.4837 270.48 26.8191 258.896 25.9965 255.054C24.6284 248.662 24.6754 244.78 26.2147 237.002C28.4057 225.929 27.9036 220.826 23.0845 205.187C21.8021 201.026 19.9725 194.641 19.0186 190.999C18.0647 187.356 16.4691 181.476 15.4731 177.932C11.1984 162.719 9.64657 154.566 9.61248 147.138C9.58843 141.843 9.90032 140.445 12.1861 135.61C13.0036 133.881 14.2486 130.935 14.9527 129.065C16.5925 124.708 17.582 123.298 21.4045 119.87C27.7023 114.224 28.4201 113.204 29.7476 108.016C31.0216 103.04 30.8691 102.125 27.1263 92.2873C23.312 82.2619 21.2864 75.7588 21.0445 72.7623C21.0043 72.2669 20.4452 71.4449 19.7532 70.8642C18.7006 69.981 18.5908 69.9481 18.954 70.6254C19.1858 71.0568 19.6991 71.5831 20.0949 71.7943C20.4908 72.0055 20.7294 72.3156 20.6257 72.4831C20.4222 72.8117 22.1374 79.6703 23.2266 82.8826C23.8489 84.7185 23.8722 85.5651 23.5722 95.4126C23.3676 102.138 23.3791 107.664 23.6048 110.628C23.7997 113.188 23.8751 115.72 23.7724 116.255C23.6547 116.87 22.8555 117.828 21.599 118.86C17.7812 121.995 16.0585 124.4 14.3832 128.933C13.7946 130.525 12.5116 133.582 11.5315 135.726C9.26616 140.684 8.85415 142.729 8.98658 148.355L9.09317 152.872L7.58656 155.817C6.75788 157.437 6.07994 158.916 6.07994 159.104C6.07994 159.293 6.39541 159.546 6.78121 159.668C7.59553 159.926 12.5234 169.644 13.374 172.67C14.0333 175.014 13.4795 175.024 12.1811 172.692C10.7835 170.182 8.55053 167.325 8.1012 167.473C7.87797 167.546 7.48535 169.204 7.2291 171.158C6.82607 174.233 6.83827 175.029 7.31882 177.088C7.6246 178.396 7.87438 179.818 7.87438 180.248C7.87438 180.678 8.33269 181.46 8.89255 181.987C12.8367 185.693 13.6166 186.511 13.6166 186.937C13.6166 187.688 13.1852 187.534 10.5294 185.835C6.03688 182.961 6.27374 183.295 4.99574 178.021C4.36373 175.412 3.20416 171.022 2.41927 168.266C1.63438 165.509 0.769097 162.126 0.496342 160.748L0 158.242L0.19273 160.569C0.298961 161.848 0.796376 164.346 1.2981 166.118C1.79983 167.89 2.99385 172.401 3.95101 176.142C5.89403 183.734 5.72141 183.451 10.0134 186.117C12.6914 187.782 13.355 187.986 13.912 187.316C14.2483 186.912 14.1549 186.539 13.4634 185.522L12.5898 184.238L13.7315 184.128C15.2119 183.985 15.1422 183.509 13.4817 182.422C12.2456 181.613 12.1976 181.521 12.8777 181.27C14.6075 180.632 13.1974 179.883 10.3866 179.948L8.77161 179.984L10.7222 180.307C13.0417 180.691 13.3001 180.86 12.044 181.175C10.7311 181.504 10.8639 181.77 12.7201 182.531C13.6073 182.895 14.2432 183.338 14.133 183.516C13.711 184.197 12.1114 183.787 10.3988 182.56C8.96899 181.535 8.57135 181.021 8.39478 179.965C8.27383 179.24 7.9519 177.839 7.67951 176.851C7.25781 175.32 7.25925 174.559 7.68848 171.71C7.96554 169.871 8.25445 168.304 8.33053 168.228C8.40662 168.152 9.5687 169.692 10.9131 171.649C12.2575 173.607 13.556 175.284 13.7986 175.377C14.0408 175.47 14.3243 175.921 14.4281 176.381C15.3012 180.246 21.2566 201.519 22.9804 206.93C26.4943 217.961 26.6791 218.906 26.6855 225.904C26.6909 231.195 26.5603 232.621 25.6864 236.823C24.4619 242.711 24.1227 247.973 24.7235 251.758C25.4664 256.44 26.7049 260.608 33.2629 280.495C39.3866 299.065 39.5847 299.759 39.8069 303.407C39.9329 305.477 40.2128 307.492 40.4285 307.886C41.0041 308.935 41.2008 310.831 41.7822 320.953C42.3083 330.106 42.252 331.977 41.2388 339.032C40.7493 342.439 41.1642 343.569 43.4959 345.181C44.8188 346.095 45.2817 346.188 49.6386 346.415C55.4433 346.717 55.6576 346.62 56.6298 343.24C58.1099 338.096 58.2096 338.731 53.9363 326.078L50.8919 317.063L52.6957 312.569C55.2689 306.159 55.5341 304.608 54.7639 300.475C54.423 298.644 53.8926 296.018 53.5854 294.64C53.1041 292.479 53.0897 291.646 53.4838 288.596C53.9607 284.905 53.8757 284.081 52.5381 279.425C51.7374 276.639 52.0375 273.984 54.5999 261.167C56.6747 250.789 56.7848 249.973 56.8225 244.699C56.8652 238.79 56.5778 237.099 54.6832 232.117L53.7788 229.739L54.4948 227.619C54.8939 226.437 55.4487 223.132 55.7484 220.152C57.1028 206.691 60.2546 191.029 64.6416 175.963C65.6447 172.517 67.3498 166.315 68.4304 162.18C70.2141 155.354 70.4122 154.212 70.582 149.784C70.7732 144.794 70.423 141.476 69.3761 138.373C69.0775 137.487 68.6813 135.431 68.4961 133.806C68.3109 132.18 67.5174 127.933 66.7325 124.368C64.6589 114.949 64.3499 112.448 64.8419 109.079C65.176 106.794 66.7935 100.593 67.6602 98.2766C67.8709 97.7135 69.3316 101.887 70.8658 107.436C71.4946 109.71 71.8686 112.311 72.109 116.077C72.6115 123.948 73.246 126.156 77.59 135.151C82.5287 145.376 83.6161 147.803 84.6773 150.961C85.2691 152.723 85.7533 154.433 85.7533 154.759C85.7533 155.085 84.9357 156.766 83.937 158.493C81.9706 161.891 81.5073 163.646 80.7425 170.593C80.5149 172.66 80.2425 174.933 80.1367 175.643C79.7774 178.057 82.1044 177.801 82.9012 175.339C83.6265 173.098 85.3287 169.519 85.6693 169.519C86.1 169.519 87.3091 172.288 88.404 175.784L89.3012 178.648L88.3096 179.722C87.7641 180.312 87.0463 181.234 86.714 181.769C86.2083 182.584 86.1979 182.709 86.6494 182.537C86.9462 182.423 87.1888 182.213 87.1888 182.069C87.1888 181.925 87.776 181.057 88.4934 180.138L89.798 178.467L89.2384 176.946C88.9309 176.11 88.572 174.862 88.441 174.173C88.1058 172.41 86.3774 168.803 85.8681 168.803C85.1999 168.803 84.1605 170.52 82.8876 173.725C81.9695 176.036 81.56 176.679 81.0037 176.679C80.4909 176.679 80.3563 176.514 80.5203 176.088C80.6452 175.763 80.9894 173.387 81.2851 170.808C82.1888 162.921 82.3822 162.1 83.9617 159.448C85.8279 156.315 86.5619 154.284 86.1186 153.479C85.9349 153.145 85.5207 151.91 85.1981 150.735C84.5496 148.375 81.1197 140.566 78.0447 134.45C74.2049 126.812 73.3102 123.656 72.8243 116.035C72.4593 110.305 71.4655 105.943 69.0351 99.4025C68.1135 96.9223 68.1074 96.8461 68.6597 94.6257C69.4891 91.2928 70.0537 87.2463 69.8667 85.975C69.7537 85.2071 70.0235 84.2269 70.7302 82.8397C72.5846 79.1995 72.4302 75.5075 70.2378 71.0733C69.4425 69.4644 69.0251 68.0203 68.8916 66.4146L68.6982 64.0876L68.4175 65.9904ZM26.0037 81.0926C26.2735 82.9149 27.7496 85.728 29.2326 87.2456C32.3452 90.4311 37.0592 91.344 40.7985 89.4852C42.6041 88.5874 45.1988 86.1419 45.1988 85.3371C45.1988 85.113 44.5733 85.6389 43.8089 86.5052C40.033 90.784 34.3493 91.0776 30.044 87.2166C28.3709 85.7158 27.1941 83.7665 26.1318 80.7346C25.8741 79.9997 25.8511 80.0637 26.0037 81.0926ZM24.7422 87.2259C24.7422 87.4257 25.789 90.3587 27.0685 93.744C30.4054 102.574 30.5745 103.933 28.9684 109.017C27.9836 112.134 27.4069 113.221 25.8138 114.958L24.4698 116.425L24.2107 111.413C23.8966 105.334 24.0969 86.4655 24.473 86.6971C24.6212 86.7884 24.7422 87.0261 24.7422 87.2259ZM10.5847 160.569C11.1187 163.227 11.6172 165.804 11.6926 166.297C11.7676 166.789 11.0348 165.553 10.0636 163.551C9.03826 161.438 7.93037 159.671 7.42218 159.339L6.54649 158.767L7.83849 156.267C9.33578 153.37 9.04723 152.918 10.5847 160.569ZM82.7924 181.391C82.2494 181.589 81.8055 181.908 81.8055 182.099C81.8055 182.292 81.9903 182.335 82.2161 182.196C82.4418 182.057 83.2899 181.736 84.1002 181.483C85.1708 181.148 85.3284 181.024 84.6766 181.027C84.1831 181.029 83.3354 181.193 82.7924 181.391Z" fill="black" stroke="black" stroke-width="2" mask="url(#path-1-inside-1_70_3)"/>
</svg>
