<svg width="115" height="346" viewBox="0 0 115 346" fill="none" xmlns="http://www.w3.org/2000/svg">
<path d="M30.5536 19.4042C31.4294 18.4116 30.5828 16.8934 30.4514 15.025C30.2762 12.4266 31.5608 10.3538 32.5972 8.70423C34.0424 6.38323 35.7795 5.08405 36.6845 4.42716C37.1517 4.07682 39.2391 2.58787 42.4214 1.69742C43.6184 1.36168 45.2241 0.923757 47.3845 1.01134C48.5961 1.05513 51.0339 1.20111 53.5155 2.76304C55.3256 3.91625 56.3474 5.30301 56.8291 5.9745C57.8072 7.34666 58.3035 8.60205 58.683 9.58008C59.1209 10.6895 59.3399 11.5653 59.661 12.7915C60.0552 14.3389 60.2741 15.5505 60.4347 16.4847C60.7705 18.3532 60.3179 19.4334 60.9164 19.7983C61.4419 20.1049 62.055 19.5356 62.5659 19.9005C62.9017 20.1487 62.9455 20.6158 62.9601 21.7544C62.9747 23.4477 62.9017 24.4696 62.8579 25.5498C62.7849 27.4182 62.8725 27.5496 62.6681 28.0751C62.274 29.0824 61.5149 29.7685 61.0186 30.221C60.1428 31.0092 59.9092 30.8925 59.4567 31.3888C58.4202 32.5128 59.0625 33.7098 58.5808 35.2863C58.3619 35.987 56.9751 37.1548 54.2016 39.4758C52.844 40.6144 51.3988 41.6654 50.1143 42.877C48.6399 44.2784 48.3042 44.8039 47.2969 45.2126C45.5015 45.9279 43.7059 45.4024 43.1075 45.2126C40.6697 44.4536 39.3413 42.6289 37.1663 39.5634C34.8453 36.2789 35.5459 35.5345 33.4731 33.2427C32.5826 32.2646 31.7506 31.5931 30.5536 29.929C29.7799 28.8634 29.1522 27.973 28.6997 26.6154C28.4807 25.9585 27.9406 24.2506 28.4078 22.3383C28.6705 21.2727 29.0938 20.718 29.1814 20.5866C29.7361 19.8567 30.174 19.8275 30.5536 19.4042Z" stroke="black" stroke-miterlimit="10" stroke-linecap="round" stroke-linejoin="round"/>
<path d="M24.3204 74.2909C23.8095 75.2689 23.1088 76.6557 22.379 78.3782C21.5615 80.2758 20.8316 81.9837 20.2331 84.3194C19.985 85.2828 19.5033 87.3994 19.3573 90.1584C19.1967 93.3552 19.1091 94.9609 20.131 96.3915C20.963 97.5593 21.6929 97.4279 22.2768 98.7271C22.7293 99.7197 22.4374 100.07 22.8607 102.42C22.9045 102.625 23.0797 103.398 23.4446 104.946C23.8825 106.785 23.9993 107.267 24.2183 107.865C24.5832 108.858 24.9335 109.5 25.0941 109.807C26.043 111.704 25.3569 113.325 24.9043 118.959C24.7584 120.74 24.7584 121.412 24.5102 124.317C24.335 126.448 24.2329 127.178 24.0285 128.112C23.9263 128.594 23.5614 130.083 22.7585 131.907C22.2184 133.133 21.6491 134.111 21.2988 134.725C20.5105 136.082 20.2769 136.257 19.839 137.162C19.5033 137.848 19.2113 138.637 18.861 140.082C18.2625 142.622 18.423 143.454 17.9851 146.213C17.7224 147.848 17.6932 147.424 17.0071 150.884C16.4378 153.804 16.4086 154.329 16.029 156.139C15.5035 158.65 15.1094 159.73 14.4671 162.08C14.4671 162.08 13.2993 166.343 12.5256 170.839C11.8104 174.97 11.7812 177.962 11.752 182.999C11.679 193.961 11.6352 199.45 11.9417 200.705C12.0731 201.245 12.6424 203.479 11.752 204.107C11.4454 204.326 11.1681 204.209 8.73029 203.815C7.12456 203.552 6.92021 203.537 6.49688 203.333C5.66482 202.91 5.21228 202.326 4.64298 201.581C3.98609 200.72 3.89852 200.34 2.99347 198.662C1.81107 196.472 1.72348 196.633 1.43153 195.844C0.920614 194.399 0.979011 193.158 1.0374 192.151C1.12499 190.677 1.41694 189.816 2.10303 187.48C3.00807 184.458 3.446 182.94 3.85473 181.247C4.0445 180.444 4.49701 178.488 4.83276 175.992C5.02252 174.576 5.24149 172.576 5.31448 169.087C5.40207 165.657 5.27068 164.591 5.21229 160.913C5.11011 153.249 5.08092 149.351 6.19033 146.023C6.52608 144.987 7.09537 143.556 7.83984 140.958C8.48213 138.71 8.52594 138.184 9.10984 136.578C9.76672 134.768 9.98568 134.681 10.9637 132.301C11.825 130.185 12.2483 129.119 12.5256 127.82C12.6862 127.075 13.0804 124.9 12.7154 122.171C12.5256 120.667 12.3213 120.696 11.9417 118.478C11.7812 117.514 11.6498 116.536 11.46 114.098C11.2119 111.091 11.0951 109.588 11.0659 108.07C11.0075 104.916 11.3141 105.019 11.5476 99.7051C11.752 95.1799 11.5184 95.1945 11.8396 93.2822C12.2045 91.0926 12.657 90.2459 12.7154 88.0271C12.73 87.3994 12.7154 86.8301 12.4235 83.9398C11.9855 79.5897 11.9126 79.8233 11.8396 78.5825C11.606 74.8893 11.4454 72.4224 12.9052 70.3057C13.6205 69.2839 14.5839 68.6124 16.5108 67.284C17.9121 66.3206 19.0653 65.7221 20.4083 65.0506C22.5541 63.9558 23.0943 63.8536 25.5612 62.715C26.9334 62.0727 28.2034 61.4158 30.7142 60.0875C35.3562 57.6497 35.9401 57.168 36.3634 56.2921C36.6991 55.5914 36.6554 54.3506 36.5532 51.9129C36.4656 49.5189 36.2612 47.7818 36.0714 45.9717C35.9109 44.4973 35.7065 42.3661 35.4875 39.7385" stroke="black" stroke-miterlimit="10" stroke-linecap="round" stroke-linejoin="round"/>
<path d="M12.6424 204.588C12.949 205.873 13.3869 207.727 13.927 209.96C15.2408 215.405 15.8977 218.12 16.54 220.368C18.2479 226.353 18.6858 226.236 20.2331 231.857C21.1528 235.185 21.255 236.148 22.1746 238.09C22.6709 239.112 23.1818 239.958 23.4446 241.403C23.649 242.498 23.4884 242.775 23.5468 245.096C23.5906 247.242 23.6198 248.323 23.9409 249.184C24.554 250.848 25.7948 251.665 26.6706 252.395C28.5537 253.986 29.415 256.22 31.1521 260.672C31.9404 262.686 32.3199 264.132 34.2613 273.62C35.2248 278.335 35.7065 280.685 35.8233 281.313C37.1809 289.196 37.4874 295.4 37.575 297.954C37.7502 302.684 37.429 302.085 37.6772 305.355C38.0129 309.968 38.6698 311.515 37.6772 313.924C37.283 314.873 36.5094 315.982 34.9474 318.201C33.4147 320.391 33.1228 320.493 32.3199 321.894C31.2543 323.777 31.517 324.069 30.2762 326.463C29.8383 327.31 29.1376 328.667 27.9406 330.258C27.4297 330.944 26.4517 332.229 24.9189 333.572C22.6271 335.586 21.9118 335.251 21.1236 336.492C19.8828 338.448 20.058 341.805 21.8097 343.017C23.1089 343.907 24.8897 343.367 26.6706 342.827C28.5683 342.258 29.8529 341.338 30.7579 340.681C32.3637 339.528 32.2615 339.207 34.9474 336.886C37.3852 334.769 38.1735 334.433 38.6406 334.258C40.1296 333.718 40.5091 334.098 41.9543 333.484C42.4944 333.251 44.0709 332.492 45.1657 330.857C45.3555 330.565 46.0416 329.485 46.3335 326.77C46.6401 323.85 46.0999 322.712 46.0416 319.471C46.027 319.018 46.1437 317.544 46.3335 314.61C46.5087 311.866 46.6109 310.508 46.7276 308.961C47.078 304.435 47.4575 300.917 47.7933 297.867C48.2166 294.057 48.4209 292.144 48.7713 289.882C49.5887 284.466 49.9537 284.203 50.3332 281.123C50.8879 276.54 50.5522 273.065 50.1435 268.861C49.5012 262.278 48.2896 258.38 47.9976 257.475C47.078 254.585 46.5087 252.877 44.9759 251.052C43.633 249.447 42.7133 249.169 41.4725 247.257C40.2463 245.374 39.823 243.622 39.5311 242.396C38.699 238.863 38.9764 235.958 39.0493 235.287C39.6478 228.893 38.9034 222.441 39.0493 216.018C39.3267 203.464 39.4581 197.114 39.3413 193.83C39.0931 187.188 38.5384 181.597 38.8596 181.568C39.0931 181.539 39.5019 184.809 40.3193 188.283C41.8375 194.677 44.1877 199.143 46.7422 203.946C53.9534 217.478 66.4635 233.827 67.9524 235.769" stroke="black" stroke-miterlimit="10" stroke-linecap="round" stroke-linejoin="round"/>
<path d="M69.2954 230.47C68.7407 234.455 68.4633 237.389 68.8575 237.477C69.1786 237.55 69.7917 235.608 70.1129 235.696C70.6384 235.827 68.2444 240.834 70.1567 245.082C71.3829 247.782 73.3389 247.958 74.7841 251.505C75.5577 253.432 75.6453 255.008 75.7037 255.694C76.2584 262.161 81.5427 269.81 86.4037 282.948C90.5348 294.071 91.1333 300.392 94.4615 305.136C94.987 305.895 95.9067 307.048 96.2132 308.858C96.8701 312.639 94.0966 314.551 95.1184 317.617C95.6877 319.325 96.6074 318.887 97.746 321.12C98.6948 323.003 98.3737 323.952 98.8408 328.346C98.9138 328.988 99.2203 331.777 99.9356 335.134C100.52 337.834 101.074 339.542 101.906 341.265C102.87 343.25 103.673 344.827 104.972 344.987C105.891 345.104 106.198 344.418 108.475 342.798C111.599 340.579 112.811 340.608 113.73 338.856C114.27 337.834 114.358 336.9 114.387 336.448C114.548 334.404 113.672 333.076 112.416 330.536C110.606 326.886 111.292 327.353 109.57 323.967C107.512 319.909 107.015 320.171 106.067 317.836C105.22 315.748 105.103 314.259 104.753 309.077C104.344 303.019 104.125 299.983 104.096 299.224C103.585 287.736 103.804 287.736 103.439 283.021C103.03 277.751 102.811 274.846 101.906 270.759C101.279 267.942 100.242 264.861 98.1839 258.716C95.9943 252.191 95.206 250.541 94.6805 249.519C93.3959 246.994 92.7244 246.293 89.8633 241.856C86.7102 236.951 85.1337 234.484 84.3892 232.878C82.5208 228.776 83.1631 227.244 81.9807 216.675C81.1924 209.668 80.229 204.311 79.791 202.005C78.2875 194.005 76.638 188.152 76.2876 186.896C75.076 182.619 74.098 179.831 72.3463 174.853C69.5582 166.941 68.6823 165.54 67.7481 164.343C66.3321 162.518 65.3541 161.905 64.6826 159.964C64.2155 158.606 64.3614 156.489 64.6826 152.3C65.0913 146.943 65.1497 146.271 65.1205 144.855C65.0767 142.651 64.8578 140.651 64.6826 139.381C64.2155 135.819 63.8359 135.819 63.8067 133.907C63.7775 132.068 64.1571 130.564 64.9016 127.557C65.646 124.594 65.8942 124.55 66.4343 122.083C66.9306 119.821 67.135 118.025 67.3101 116.39C67.8065 111.806 67.3101 112.113 67.7481 110.259C68.3028 107.865 69.4414 106.186 71.6894 102.814C73.7477 99.7343 74.0688 99.8949 75.1928 97.7783C76.9007 94.5376 77.3094 91.9831 77.3824 91.4284C77.689 89.3409 77.5576 87.5892 77.3824 86.3922" stroke="black" stroke-miterlimit="10" stroke-linecap="round" stroke-linejoin="round"/>
<path d="M57.2525 40.629C57.0627 43.0084 57.0335 44.9499 57.0335 46.3221C57.0481 49.4021 57.2525 49.6795 57.0335 51.3582C56.6977 53.869 56.0263 54.701 56.5956 55.5185C57.1649 56.336 58.3181 56.2192 60.7559 56.3943C60.7559 56.3943 64.0257 56.6279 66.8868 57.2702C71.0909 58.2044 70.7114 59.708 74.1126 60.3357C77.9371 61.0364 79.1341 59.2555 81.9952 60.5546C83.6448 61.2991 84.652 62.5253 85.7176 63.8391C86.3891 64.6711 87.8197 66.452 88.5641 69.0942C89.2794 71.6342 88.5203 72.0137 89.221 75.0062C89.7173 77.1228 90.491 78.6702 91.1917 80.0423C92.5493 82.7137 93.2061 83.0056 94.2572 85.0785C95.498 87.5017 95.1768 88.2461 96.2278 91.6474C97.4832 95.7201 98.1839 95.4427 100.169 100.625C100.957 102.683 101.571 104.625 102.797 108.507C104.14 112.755 104.373 113.865 105.643 115.295C106.753 116.536 107.716 116.959 107.833 118.142C107.92 118.974 107.512 119.426 105.862 122.083C104.724 123.908 104.169 124.813 103.673 125.806C102.665 127.835 102.344 129.411 102.14 130.185C101.162 133.732 98.2569 135.236 92.7244 140.476C89.1772 143.833 86.2723 147.103 84.1849 149.454C79.7472 154.446 78.7984 156.095 76.0833 156.898C75.076 157.19 73.3973 157.511 73.0178 158.65C72.7404 159.482 73.4119 160.008 74.1126 161.934C74.2294 162.241 74.9592 164.314 74.9884 166.752C75.003 167.7 74.9009 169.16 74.3316 170.912" stroke="black" stroke-miterlimit="10" stroke-linecap="round" stroke-linejoin="round"/>
<path d="M65.573 157.774C65.3978 156.621 65.3103 154.928 66.0109 153.176C66.9014 150.957 68.3757 150.359 70.3902 148.14C72.3171 146.023 71.9667 145.468 74.5505 141.352C77.0904 137.323 77.397 137.892 80.0246 133.907C82.7543 129.761 82.6083 128.842 85.4986 124.711C87.2941 122.142 88.1846 120.857 89.6589 119.675C92.8996 117.062 96.6365 116.507 98.8554 116.39" stroke="black" stroke-miterlimit="10" stroke-linecap="round" stroke-linejoin="round"/>
<path d="M72.5798 80.2612C73.9666 81.1955 75.5577 82.4217 77.1781 83.9836C78.6086 85.3558 79.7618 86.7133 80.6815 87.9249" stroke="black" stroke-miterlimit="10" stroke-linecap="round" stroke-linejoin="round"/>
<path d="M78.7108 89.8956C79.3239 92.3626 80.0246 94.4938 80.6815 96.2456C81.8639 99.3694 83.0317 101.617 83.309 102.158C83.6448 102.8 83.7762 103.019 86.1555 106.975C86.1555 106.975 88.3744 110.668 89.44 112.449C90.1991 113.719 91.3085 115.558 92.6514 117.835" stroke="black" stroke-miterlimit="10" stroke-linecap="round" stroke-linejoin="round"/>
<path d="M26.1597 65.8097C27.8092 66.2476 29.1668 66.4082 30.1011 66.4666C32.9184 66.6563 34.3343 66.16 37.7648 66.2476C39.0785 66.2768 40.1442 66.379 40.8302 66.4666" stroke="black" stroke-miterlimit="10" stroke-linecap="round" stroke-linejoin="round"/>
<path d="M39.2975 57.7081C39.4581 59.2847 39.7208 61.051 40.1733 62.9632C40.728 65.3134 41.4287 67.3717 42.144 69.0942" stroke="black" stroke-miterlimit="10" stroke-linecap="round" stroke-linejoin="round"/>
<path d="M55.0628 47.8547C54.6249 49.7524 53.9534 52.161 52.8732 54.8615C52.2455 56.4381 51.2383 58.9197 49.3698 61.8684C48.2166 63.693 46.5233 66.014 44.1147 68.4372" stroke="black" stroke-miterlimit="10" stroke-linecap="round" stroke-linejoin="round"/>
<path d="M59.88 22.0172C59.6611 24.3528 59.4421 26.6884 59.2231 29.024" stroke="black" stroke-miterlimit="10" stroke-linecap="round" stroke-linejoin="round"/>
<path d="M31.1959 21.7982C31.8528 24.4258 32.5097 27.0533 33.1666 29.6809" stroke="black" stroke-miterlimit="10" stroke-linecap="round" stroke-linejoin="round"/>
<path d="M42.582 76.3199C42.0565 78.4512 41.5894 81.3853 41.7061 84.8595C41.8083 87.7498 42.29 90.2022 42.8009 92.0853" stroke="black" stroke-miterlimit="10" stroke-linecap="round" stroke-linejoin="round"/>
<path d="M28.1304 99.9679C29.6631 99.0191 31.3419 98.0557 33.1665 97.1214C34.5971 96.3915 35.9985 95.7347 37.3268 95.1508" stroke="black" stroke-miterlimit="10" stroke-linecap="round" stroke-linejoin="round"/>
<path d="M48.4939 97.5593C50.3916 98.5666 52.0703 99.1651 53.3111 99.53C55.5883 100.201 58.5078 101.048 62.0696 100.406C63.5732 100.128 64.7702 99.676 65.573 99.311" stroke="black" stroke-miterlimit="10" stroke-linecap="round" stroke-linejoin="round"/>
<path d="M72.5799 82.6699V87.925L70.6092 93.3991" stroke="black" stroke-miterlimit="10" stroke-linecap="round" stroke-linejoin="round"/>
<path d="M32.2907 107.851C33.1373 107.267 34.0862 106.683 35.1372 106.099C36.0568 105.588 36.9327 105.165 37.7647 104.785" stroke="black" stroke-miterlimit="10" stroke-linecap="round" stroke-linejoin="round"/>
<path d="M43.4578 104.785C44.5234 105.223 45.7058 105.792 46.9612 106.537C48.5523 107.486 49.8661 108.478 50.9025 109.383" stroke="black" stroke-miterlimit="10" stroke-linecap="round" stroke-linejoin="round"/>
<path d="M38.6406 129.528C38.772 130.477 38.8596 131.761 38.6406 133.25C38.4946 134.287 38.2465 135.162 37.9837 135.878" stroke="black" stroke-miterlimit="10" stroke-linecap="round" stroke-linejoin="round"/>
<path d="M16.9633 125.368C16.6714 127.411 16.3794 129.455 16.0875 131.499" stroke="black" stroke-miterlimit="10" stroke-linecap="round" stroke-linejoin="round"/>
<path d="M21.1236 145.512C21.6783 147.439 22.2184 149.556 22.6563 151.862C23.0651 153.964 23.3424 155.935 23.5322 157.774" stroke="black" stroke-miterlimit="10" stroke-linecap="round" stroke-linejoin="round"/>
<path d="M26.8166 162.591C27.1816 165.321 27.7947 167.554 28.3494 169.16C29.0208 171.145 29.8237 173.423 31.6338 175.948C31.882 176.298 33.3125 178.254 35.7941 180.108C37.2538 181.203 38.0275 181.758 38.8158 181.524C39.9106 181.218 39.8084 179.773 41.4871 176.605C42.3192 175.028 43.122 173.89 43.6768 173.102C44.6694 171.686 45.6036 170.591 46.3043 169.817" stroke="black" stroke-miterlimit="10" stroke-linecap="round" stroke-linejoin="round"/>
<path d="M50.0267 164.343C50.7565 163.511 51.8514 162.241 53.0922 160.621C54.1578 159.234 54.8293 158.256 55.9387 156.679C56.8583 155.365 58.2013 153.482 59.88 151.205" stroke="black" stroke-miterlimit="10" stroke-linecap="round" stroke-linejoin="round"/>
<path d="M5.57721 185.582C5.13929 187.626 5.0809 189.363 5.13929 190.618C5.21227 192.399 5.50422 193.596 6.01514 195.655C6.64283 198.224 6.97857 199.552 7.54788 199.596C8.23396 199.64 9.02223 197.83 9.29958 196.311C9.66452 194.355 9.10981 193.319 8.86165 190.618C8.77407 189.582 8.70108 188.093 8.86165 186.239" stroke="black" stroke-miterlimit="10" stroke-linecap="round" stroke-linejoin="round"/>
<path d="M73.5141 174.255C73.9812 174.386 74.7987 174.547 75.7767 174.328C76.2146 174.226 76.9153 174.065 77.5284 173.452C78.1999 172.78 78.3459 171.992 78.4043 171.7C78.594 170.649 78.2291 169.846 78.1123 169.584C77.7766 168.854 77.2949 168.416 77.0175 168.197" stroke="black" stroke-miterlimit="10" stroke-linecap="round" stroke-linejoin="round"/>
<path d="M106.169 339.396C106.563 340.053 106.986 340.71 107.439 341.396C107.716 341.834 108.008 342.243 108.285 342.666" stroke="black" stroke-miterlimit="10" stroke-linecap="round" stroke-linejoin="round"/>
</svg>
